<svg xmlns="http://www.w3.org/2000/svg" width="1640" height="1080" viewBox="0 0 1640 1080">
<defs><marker id="arrow" markerWidth="12" markerHeight="12" refX="10" refY="3" orient="auto" markerUnits="strokeWidth"><path d="M0,0 L0,6 L10,3 z" fill="#344054"/></marker></defs>
<rect width="100%" height="100%" fill="#fbfbf7"/>
<text x="820.0" y="48.0" text-anchor="middle" font-size="30" font-weight="900" fill="#111827">FunGen-xQTL Protocol Workflow: implemented 2026 repository view</text>
<text x="820.0" y="80.0" text-anchor="middle" font-size="16" font-weight="500" fill="#667085">Solid arrows show implemented data flow; dashed panels group analysis families.</text>
<rect x="50" y="115" width="340" height="425" rx="18" fill="#ffffff" stroke="#94a3b8" stroke-width="2.5" stroke-dasharray="14 10"/>
<text x="220.0" y="149.0" text-anchor="middle" font-size="22" font-weight="800" fill="#1f2937">Inputs &amp; reference data</text>
<rect x="430" y="115" width="340" height="425" rx="18" fill="#ffffff" stroke="#94a3b8" stroke-width="2.5" stroke-dasharray="14 10"/>
<text x="600.0" y="149.0" text-anchor="middle" font-size="22" font-weight="800" fill="#1f2937">QC, harmonization &amp; covariates</text>
<rect x="810" y="115" width="360" height="425" rx="18" fill="#ffffff" stroke="#94a3b8" stroke-width="2.5" stroke-dasharray="14 10"/>
<text x="990.0" y="149.0" text-anchor="middle" font-size="22" font-weight="800" fill="#1f2937">QTL association &amp; fine-mapping</text>
<rect x="1210" y="115" width="380" height="425" rx="18" fill="#ffffff" stroke="#94a3b8" stroke-width="2.5" stroke-dasharray="14 10"/>
<text x="1400.0" y="149.0" text-anchor="middle" font-size="22" font-weight="800" fill="#1f2937">GWAS / trait integration</text>
<rect x="430" y="600" width="1160" height="360" rx="18" fill="#ffffff" stroke="#94a3b8" stroke-width="2.5" stroke-dasharray="14 10"/>
<text x="1010.0" y="634.0" text-anchor="middle" font-size="22" font-weight="800" fill="#1f2937">Validation, prioritization &amp; scores</text>
<rect x="90" y="165" width="260" height="72" rx="14" fill="#dbeafe" stroke="#344054" stroke-width="2"/>
<text x="220.0" y="196.4" text-anchor="middle" font-size="19" font-weight="700" fill="#111827">GWAS meta-analysis</text>
<text x="220.0" y="219.2" text-anchor="middle" font-size="19" font-weight="700" fill="#111827">summary statistics</text>
<rect x="90" y="258" width="260" height="72" rx="14" fill="#dbeafe" stroke="#344054" stroke-width="2"/>
<text x="220.0" y="300.3" text-anchor="middle" font-size="19" font-weight="700" fill="#111827">xQTL summary statistics</text>
<rect x="90" y="351" width="260" height="72" rx="14" fill="#dbeafe" stroke="#344054" stroke-width="2"/>
<text x="220.0" y="382.4" text-anchor="middle" font-size="19" font-weight="700" fill="#111827">Reference genotype and</text>
<text x="220.0" y="405.2" text-anchor="middle" font-size="19" font-weight="700" fill="#111827">LD panels</text>
<rect x="90" y="444" width="260" height="72" rx="14" fill="#dbeafe" stroke="#344054" stroke-width="2"/>
<text x="220.0" y="453.6" text-anchor="middle" font-size="19" font-weight="700" fill="#111827">Context-specific omics</text>
<text x="220.0" y="482.0" text-anchor="middle" font-size="15" font-weight="500" fill="#667085">expression, splicing, methylation,</text>
<text x="220.0" y="500.0" text-anchor="middle" font-size="15" font-weight="500" fill="#667085">APA, chromatin, protein /</text>
<text x="220.0" y="518.0" text-anchor="middle" font-size="15" font-weight="500" fill="#667085">metabolites</text>
<rect x="470" y="158" width="260" height="70" rx="14" fill="#dcfce7" stroke="#344054" stroke-width="2"/>
<text x="600.0" y="188.4" text-anchor="middle" font-size="19" font-weight="700" fill="#111827">Genotype QC, PCA and</text>
<text x="600.0" y="211.2" text-anchor="middle" font-size="19" font-weight="700" fill="#111827">kinship</text>
<rect x="470" y="252" width="260" height="80" rx="14" fill="#dcfce7" stroke="#344054" stroke-width="2"/>
<text x="600.0" y="276.5" text-anchor="middle" font-size="19" font-weight="700" fill="#111827">Allele/build</text>
<text x="600.0" y="299.3" text-anchor="middle" font-size="19" font-weight="700" fill="#111827">harmonization and</text>
<text x="600.0" y="322.1" text-anchor="middle" font-size="19" font-weight="700" fill="#111827">Z-score correction</text>
<rect x="470" y="356" width="260" height="80" rx="14" fill="#dcfce7" stroke="#344054" stroke-width="2"/>
<text x="600.0" y="380.5" text-anchor="middle" font-size="19" font-weight="700" fill="#111827">Phenotype QC,</text>
<text x="600.0" y="403.3" text-anchor="middle" font-size="19" font-weight="700" fill="#111827">normalization and</text>
<text x="600.0" y="426.1" text-anchor="middle" font-size="19" font-weight="700" fill="#111827">imputation</text>
<rect x="470" y="460" width="260" height="58" rx="14" fill="#dcfce7" stroke="#344054" stroke-width="2"/>
<text x="600.0" y="484.4" text-anchor="middle" font-size="19" font-weight="700" fill="#111827">Known + hidden</text>
<text x="600.0" y="507.2" text-anchor="middle" font-size="19" font-weight="700" fill="#111827">covariates</text>
<rect x="850" y="150" width="280" height="72" rx="14" fill="#fef3c7" stroke="#344054" stroke-width="2"/>
<text x="990.0" y="181.4" text-anchor="middle" font-size="19" font-weight="700" fill="#111827">xQTL association testing</text>
<text x="990.0" y="209.8" text-anchor="middle" font-size="15" font-weight="500" fill="#667085">TensorQTL; quantile QTL</text>
<rect x="850" y="246" width="280" height="82" rx="14" fill="#fef3c7" stroke="#344054" stroke-width="2"/>
<text x="990.0" y="271.5" text-anchor="middle" font-size="19" font-weight="700" fill="#111827">Univariate fine-mapping</text>
<text x="990.0" y="294.3" text-anchor="middle" font-size="19" font-weight="700" fill="#111827">and TWAS weights</text>
<text x="990.0" y="322.3" text-anchor="middle" font-size="15" font-weight="500" fill="#667085">SuSiE, RSS, fSuSiE</text>
<rect x="850" y="352" width="280" height="82" rx="14" fill="#fef3c7" stroke="#344054" stroke-width="2"/>
<text x="990.0" y="377.5" text-anchor="middle" font-size="19" font-weight="700" fill="#111827">Multivariate /</text>
<text x="990.0" y="400.3" text-anchor="middle" font-size="19" font-weight="700" fill="#111827">multi-gene fine-mapping</text>
<text x="990.0" y="428.3" text-anchor="middle" font-size="15" font-weight="500" fill="#667085">mvSuSiE, mr.mash, TAD windows</text>
<rect x="850" y="458" width="280" height="58" rx="14" fill="#e0e7ff" stroke="#344054" stroke-width="2"/>
<text x="990.0" y="482.4" text-anchor="middle" font-size="19" font-weight="700" fill="#111827">Omics prediction</text>
<text x="990.0" y="505.2" text-anchor="middle" font-size="19" font-weight="700" fill="#111827">databases</text>
<rect x="1250" y="150" width="300" height="72" rx="14" fill="#fee2e2" stroke="#344054" stroke-width="2"/>
<text x="1400.0" y="181.4" text-anchor="middle" font-size="19" font-weight="700" fill="#111827">SuSiE-enloc enrichment</text>
<text x="1400.0" y="209.8" text-anchor="middle" font-size="15" font-weight="500" fill="#667085">global xQTL-GWAS priors</text>
<rect x="1250" y="246" width="300" height="72" rx="14" fill="#fee2e2" stroke="#344054" stroke-width="2"/>
<text x="1400.0" y="277.4" text-anchor="middle" font-size="19" font-weight="700" fill="#111827">Pairwise colocalization</text>
<text x="1400.0" y="305.8" text-anchor="middle" font-size="15" font-weight="500" fill="#667085">shared causal variants</text>
<rect x="1250" y="342" width="300" height="82" rx="14" fill="#fee2e2" stroke="#344054" stroke-width="2"/>
<text x="1400.0" y="367.5" text-anchor="middle" font-size="19" font-weight="700" fill="#111827">TWAS → cTWAS → MR</text>
<text x="1400.0" y="395.9" text-anchor="middle" font-size="15" font-weight="500" fill="#667085">gene-trait association and</text>
<text x="1400.0" y="413.9" text-anchor="middle" font-size="15" font-weight="500" fill="#667085">causal follow-up</text>
<rect x="1250" y="458" width="300" height="58" rx="14" fill="#fee2e2" stroke="#344054" stroke-width="2"/>
<text x="1400.0" y="482.4" text-anchor="middle" font-size="19" font-weight="700" fill="#111827">ColocBoost and coloc</text>
<text x="1400.0" y="505.2" text-anchor="middle" font-size="19" font-weight="700" fill="#111827">post-processing</text>
<rect x="475" y="665" width="235" height="72" rx="14" fill="#dcfce7" stroke="#344054" stroke-width="2"/>
<text x="592.5" y="685.5" text-anchor="middle" font-size="19" font-weight="700" fill="#111827">EOO annotation</text>
<text x="592.5" y="708.3" text-anchor="middle" font-size="19" font-weight="700" fill="#111827">enrichment</text>
<text x="592.5" y="736.3" text-anchor="middle" font-size="15" font-weight="500" fill="#667085">LOCO jackknife</text>
<rect x="745" y="665" width="235" height="72" rx="14" fill="#dcfce7" stroke="#344054" stroke-width="2"/>
<text x="862.5" y="685.5" text-anchor="middle" font-size="19" font-weight="700" fill="#111827">Pathway / gene set</text>
<text x="862.5" y="708.3" text-anchor="middle" font-size="19" font-weight="700" fill="#111827">enrichment</text>
<text x="862.5" y="736.3" text-anchor="middle" font-size="15" font-weight="500" fill="#667085">GSEA multi-database</text>
<rect x="1015" y="665" width="235" height="72" rx="14" fill="#dcfce7" stroke="#344054" stroke-width="2"/>
<text x="1132.5" y="685.5" text-anchor="middle" font-size="19" font-weight="700" fill="#111827">GREGOR and sLDSC</text>
<text x="1132.5" y="713.9" text-anchor="middle" font-size="15" font-weight="500" fill="#667085">variant and heritability</text>
<text x="1132.5" y="731.9" text-anchor="middle" font-size="15" font-weight="500" fill="#667085">enrichment</text>
<rect x="1285" y="665" width="235" height="72" rx="14" fill="#dcfce7" stroke="#344054" stroke-width="2"/>
<text x="1402.5" y="696.4" text-anchor="middle" font-size="19" font-weight="700" fill="#111827">xQTL modifier score</text>
<text x="1402.5" y="724.8" text-anchor="middle" font-size="15" font-weight="500" fill="#667085">EMS training and prediction</text>
<rect x="600" y="810" width="260" height="76" rx="14" fill="#e0e7ff" stroke="#344054" stroke-width="2"/>
<text x="730.0" y="843.4" text-anchor="middle" font-size="19" font-weight="700" fill="#111827">Variant, locus, gene and</text>
<text x="730.0" y="866.2" text-anchor="middle" font-size="19" font-weight="700" fill="#111827">region prioritization</text>
<rect x="1015" y="810" width="260" height="76" rx="14" fill="#e0e7ff" stroke="#344054" stroke-width="2"/>
<text x="1145.0" y="832.5" text-anchor="middle" font-size="19" font-weight="700" fill="#111827">Alzheimer&#x27;s disease</text>
<text x="1145.0" y="855.3" text-anchor="middle" font-size="19" font-weight="700" fill="#111827">biology and follow-up</text>
<text x="1145.0" y="878.1" text-anchor="middle" font-size="19" font-weight="700" fill="#111827">hypotheses</text>
<line x1="350" y1="201" x2="470" y2="201" stroke="#344054" stroke-width="3" marker-end="url(#arrow)" />
<line x1="350" y1="294" x2="470" y2="294" stroke="#344054" stroke-width="3" marker-end="url(#arrow)" />
<line x1="350" y1="390" x2="470" y2="390" stroke="#344054" stroke-width="3" marker-end="url(#arrow)" />
<line x1="350" y1="480" x2="470" y2="480" stroke="#344054" stroke-width="3" marker-end="url(#arrow)" />
<line x1="730" y1="193" x2="850" y2="186" stroke="#344054" stroke-width="3" marker-end="url(#arrow)" />
<line x1="730" y1="292" x2="850" y2="286" stroke="#344054" stroke-width="3" marker-end="url(#arrow)" />
<line x1="730" y1="396" x2="850" y2="393" stroke="#344054" stroke-width="3" marker-end="url(#arrow)" />
<line x1="730" y1="489" x2="850" y2="487" stroke="#344054" stroke-width="3" marker-end="url(#arrow)" />
<line x1="1130" y1="186" x2="1250" y2="186" stroke="#344054" stroke-width="3" marker-end="url(#arrow)" />
<line x1="1130" y1="287" x2="1250" y2="282" stroke="#344054" stroke-width="3" marker-end="url(#arrow)" />
<line x1="1130" y1="392" x2="1250" y2="383" stroke="#344054" stroke-width="3" marker-end="url(#arrow)" />
<line x1="1130" y1="487" x2="1250" y2="487" stroke="#344054" stroke-width="3" marker-end="url(#arrow)" />
<line x1="980" y1="222" x2="980" y2="246" stroke="#344054" stroke-width="3" marker-end="url(#arrow)" />
<line x1="980" y1="328" x2="980" y2="352" stroke="#344054" stroke-width="3" marker-end="url(#arrow)" />
<line x1="980" y1="434" x2="980" y2="458" stroke="#344054" stroke-width="3" marker-end="url(#arrow)" />
<line x1="1400" y1="222" x2="1400" y2="246" stroke="#344054" stroke-width="3" marker-end="url(#arrow)" />
<line x1="1400" y1="318" x2="1400" y2="342" stroke="#344054" stroke-width="3" marker-end="url(#arrow)" />
<line x1="1400" y1="424" x2="1400" y2="458" stroke="#344054" stroke-width="3" marker-end="url(#arrow)" />
<line x1="1325" y1="540" x2="1325" y2="640" stroke="#344054" stroke-width="3" marker-end="url(#arrow)" stroke-dasharray="8 8"/>
<line x1="1400" y1="540" x2="1400" y2="640" stroke="#344054" stroke-width="3" marker-end="url(#arrow)" stroke-dasharray="8 8"/>
<line x1="1475" y1="540" x2="1475" y2="640" stroke="#344054" stroke-width="3" marker-end="url(#arrow)" stroke-dasharray="8 8"/>
<line x1="980" y1="540" x2="980" y2="640" stroke="#344054" stroke-width="3" marker-end="url(#arrow)" stroke-dasharray="8 8"/>
<line x1="900" y1="540" x2="900" y2="640" stroke="#344054" stroke-width="3" marker-end="url(#arrow)" stroke-dasharray="8 8"/>
<line x1="1060" y1="540" x2="1060" y2="640" stroke="#344054" stroke-width="3" marker-end="url(#arrow)" stroke-dasharray="8 8"/>
<line x1="592" y1="737" x2="706" y2="810" stroke="#344054" stroke-width="3" marker-end="url(#arrow)" />
<line x1="862" y1="737" x2="770" y2="810" stroke="#344054" stroke-width="3" marker-end="url(#arrow)" />
<line x1="1132" y1="737" x2="1145" y2="810" stroke="#344054" stroke-width="3" marker-end="url(#arrow)" />
<line x1="1402" y1="737" x2="1145" y2="810" stroke="#344054" stroke-width="3" marker-end="url(#arrow)" />
<line x1="860" y1="848" x2="1015" y2="848" stroke="#344054" stroke-width="3" marker-end="url(#arrow)" />
<rect x="80" y="982" width="28" height="18" rx="4" fill="#dbeafe" stroke="#344054"/>
<text x="118" y="996" font-size="15" font-weight="600" fill="#374151">Inputs</text>
<rect x="260" y="982" width="28" height="18" rx="4" fill="#dcfce7" stroke="#344054"/>
<text x="298" y="996" font-size="15" font-weight="600" fill="#374151">Implemented processing / validation</text>
<rect x="560" y="982" width="28" height="18" rx="4" fill="#fef3c7" stroke="#344054"/>
<text x="598" y="996" font-size="15" font-weight="600" fill="#374151">Association and fine-mapping</text>
<rect x="860" y="982" width="28" height="18" rx="4" fill="#fee2e2" stroke="#344054"/>
<text x="898" y="996" font-size="15" font-weight="600" fill="#374151">Implemented GWAS integration</text>
<rect x="1160" y="982" width="28" height="18" rx="4" fill="#e0e7ff" stroke="#344054"/>
<text x="1198" y="996" font-size="15" font-weight="600" fill="#374151">Outputs</text>
</svg>